<svg xmlns="http://www.w3.org/2000/svg" width="21" height="26" viewBox="0 0 21 26"><polygon points="3.44 18 8.15 13.29 9.2 14.36 5.56 18 9.2 21.64 8.15 22.71 3.44 18" fill="#499797"/><path d="M8.15,22.35,3.79,18l4.36-4.35.7.71L5.21,18l3.64,3.65Z" fill="#499797"/><rect x="4.5" y="17.24" width="13" height="1.5" fill="#499797"/><path d="M4.75,17.5h12.5v1H4.75Z" fill="#499797"/><polygon points="11.8 11.64 15.44 8 11.8 4.36 12.85 3.29 17.56 8 12.85 12.71 11.8 11.64" fill="#499797"/><path d="M12.85,12.36l-.7-.71L15.79,8,12.15,4.36l.7-.71L17.21,8Z" fill="#499797"/><rect x="3.5" y="7.25" width="13" height="1.5" fill="#499797"/><path d="M3.75,7.5h12.5v1H3.75Z" fill="#499797"/></svg>